<svg width="32" height="32" viewBox="0 0 32 32" xmlns="http://www.w3.org/2000/svg">
  <defs>
    <linearGradient id="oceanGrad" x1="0%" y1="0%" x2="100%" y2="0%">
      <stop offset="0%" stop-color="#3B82F6"/>
      <stop offset="50%" stop-color="#60A5FA"/>
      <stop offset="100%" stop-color="#93C5FD"/>
    </linearGradient>
    <linearGradient id="bagGrad" x1="0%" y1="0%" x2="0%" y2="100%">
      <stop offset="0%" stop-color="#60A5FA"/>
      <stop offset="100%" stop-color="#3B82F6"/>
    </linearGradient>
  </defs>
  
  <!-- Background -->
  <rect width="32" height="32" fill="#1E3A8A" rx="6"/>
  
  <!-- Wave -->
  <path d="M2 18 Q 6 14, 10 18 T 18 18 T 26 18" 
        stroke="url(#oceanGrad)" 
        stroke-width="2.5" 
        fill="none" 
        stroke-linecap="round"
        opacity="0.9"/>
  
  <!-- Shopping Bag -->
  <g transform="translate(16, 8)">
    <path d="M2 4 L1 11 C1 11.5 1.3 12 2 12 L8 12 C8.7 12 9 11.5 9 11 L8 4 Z" 
          fill="url(#bagGrad)" 
          stroke="#60A5FA" 
          stroke-width="0.8"/>
    <path d="M3 4 C3 2.5, 4 1.5, 5 1.5 C6 1.5, 7 2.5, 7 4" 
          stroke="#93C5FD" 
          stroke-width="0.8" 
          fill="none" 
          stroke-linecap="round"/>
    <circle cx="5" cy="7.5" r="0.8" fill="#93C5FD" opacity="0.9"/>
  </g>
</svg>